<mxfile host="app.diagrams.net" agent="Mozilla/5.0 (X11; Linux x86_64; rv:109.0) Gecko/20100101 Firefox/115.0" version="24.8.3">
  <diagram name="Page-1" id="OVWTgwDOBZlbvX_xN_ZS">
    <mxGraphModel dx="1434" dy="782" grid="0" gridSize="10" guides="1" tooltips="1" connect="1" arrows="1" fold="1" page="1" pageScale="1" pageWidth="850" pageHeight="1100" math="0" shadow="0">
      <root>
        <mxCell id="0" />
        <mxCell id="1" parent="0" />
        <mxCell id="ERAgDpDxm6wKHiUxQbQV-1" value="Assumptes" style="swimlane;fontStyle=0;childLayout=stackLayout;horizontal=1;startSize=30;horizontalStack=0;resizeParent=1;resizeParentMax=0;resizeLast=0;collapsible=1;marginBottom=0;whiteSpace=wrap;html=1;" parent="1" vertex="1">
          <mxGeometry x="97" y="107" width="140" height="150" as="geometry" />
        </mxCell>
        <mxCell id="ERAgDpDxm6wKHiUxQbQV-2" value="IdAssumpte" style="text;strokeColor=none;fillColor=none;align=left;verticalAlign=middle;spacingLeft=4;spacingRight=4;overflow=hidden;points=[[0,0.5],[1,0.5]];portConstraint=eastwest;rotatable=0;whiteSpace=wrap;html=1;fontStyle=4" parent="ERAgDpDxm6wKHiUxQbQV-1" vertex="1">
          <mxGeometry y="30" width="140" height="30" as="geometry" />
        </mxCell>
        <mxCell id="ERAgDpDxm6wKHiUxQbQV-4" value="DataInici" style="text;strokeColor=none;fillColor=none;align=left;verticalAlign=middle;spacingLeft=4;spacingRight=4;overflow=hidden;points=[[0,0.5],[1,0.5]];portConstraint=eastwest;rotatable=0;whiteSpace=wrap;html=1;" parent="ERAgDpDxm6wKHiUxQbQV-1" vertex="1">
          <mxGeometry y="60" width="140" height="30" as="geometry" />
        </mxCell>
        <mxCell id="ERAgDpDxm6wKHiUxQbQV-5" value="DataArxiu" style="text;strokeColor=none;fillColor=none;align=left;verticalAlign=middle;spacingLeft=4;spacingRight=4;overflow=hidden;points=[[0,0.5],[1,0.5]];portConstraint=eastwest;rotatable=0;whiteSpace=wrap;html=1;" parent="ERAgDpDxm6wKHiUxQbQV-1" vertex="1">
          <mxGeometry y="90" width="140" height="30" as="geometry" />
        </mxCell>
        <mxCell id="ERAgDpDxm6wKHiUxQbQV-6" value="Estat" style="text;strokeColor=none;fillColor=none;align=left;verticalAlign=middle;spacingLeft=4;spacingRight=4;overflow=hidden;points=[[0,0.5],[1,0.5]];portConstraint=eastwest;rotatable=0;whiteSpace=wrap;html=1;" parent="ERAgDpDxm6wKHiUxQbQV-1" vertex="1">
          <mxGeometry y="120" width="140" height="30" as="geometry" />
        </mxCell>
        <mxCell id="ERAgDpDxm6wKHiUxQbQV-7" value="Client" style="swimlane;fontStyle=0;childLayout=stackLayout;horizontal=1;startSize=30;horizontalStack=0;resizeParent=1;resizeParentMax=0;resizeLast=0;collapsible=1;marginBottom=0;whiteSpace=wrap;html=1;" parent="1" vertex="1">
          <mxGeometry x="516" y="102" width="140" height="150" as="geometry" />
        </mxCell>
        <mxCell id="ERAgDpDxm6wKHiUxQbQV-8" value="&lt;u&gt;DNIClient&lt;/u&gt;" style="text;strokeColor=none;fillColor=none;align=left;verticalAlign=middle;spacingLeft=4;spacingRight=4;overflow=hidden;points=[[0,0.5],[1,0.5]];portConstraint=eastwest;rotatable=0;whiteSpace=wrap;html=1;fontStyle=4" parent="ERAgDpDxm6wKHiUxQbQV-7" vertex="1">
          <mxGeometry y="30" width="140" height="30" as="geometry" />
        </mxCell>
        <mxCell id="ERAgDpDxm6wKHiUxQbQV-9" value="Nom" style="text;strokeColor=none;fillColor=none;align=left;verticalAlign=middle;spacingLeft=4;spacingRight=4;overflow=hidden;points=[[0,0.5],[1,0.5]];portConstraint=eastwest;rotatable=0;whiteSpace=wrap;html=1;" parent="ERAgDpDxm6wKHiUxQbQV-7" vertex="1">
          <mxGeometry y="60" width="140" height="30" as="geometry" />
        </mxCell>
        <mxCell id="ERAgDpDxm6wKHiUxQbQV-10" value="Adreça" style="text;strokeColor=none;fillColor=none;align=left;verticalAlign=middle;spacingLeft=4;spacingRight=4;overflow=hidden;points=[[0,0.5],[1,0.5]];portConstraint=eastwest;rotatable=0;whiteSpace=wrap;html=1;" parent="ERAgDpDxm6wKHiUxQbQV-7" vertex="1">
          <mxGeometry y="90" width="140" height="30" as="geometry" />
        </mxCell>
        <mxCell id="ERAgDpDxm6wKHiUxQbQV-11" value="Telf" style="text;strokeColor=none;fillColor=none;align=left;verticalAlign=middle;spacingLeft=4;spacingRight=4;overflow=hidden;points=[[0,0.5],[1,0.5]];portConstraint=eastwest;rotatable=0;whiteSpace=wrap;html=1;" parent="ERAgDpDxm6wKHiUxQbQV-7" vertex="1">
          <mxGeometry y="120" width="140" height="30" as="geometry" />
        </mxCell>
        <mxCell id="ERAgDpDxm6wKHiUxQbQV-12" value="Procurador" style="swimlane;fontStyle=0;childLayout=stackLayout;horizontal=1;startSize=30;horizontalStack=0;resizeParent=1;resizeParentMax=0;resizeLast=0;collapsible=1;marginBottom=0;whiteSpace=wrap;html=1;" parent="1" vertex="1">
          <mxGeometry x="322" y="316" width="140" height="150" as="geometry" />
        </mxCell>
        <mxCell id="ERAgDpDxm6wKHiUxQbQV-13" value="DNIProcurador" style="text;strokeColor=none;fillColor=none;align=left;verticalAlign=middle;spacingLeft=4;spacingRight=4;overflow=hidden;points=[[0,0.5],[1,0.5]];portConstraint=eastwest;rotatable=0;whiteSpace=wrap;html=1;fontStyle=4" parent="ERAgDpDxm6wKHiUxQbQV-12" vertex="1">
          <mxGeometry y="30" width="140" height="30" as="geometry" />
        </mxCell>
        <mxCell id="ERAgDpDxm6wKHiUxQbQV-14" value="Nom" style="text;strokeColor=none;fillColor=none;align=left;verticalAlign=middle;spacingLeft=4;spacingRight=4;overflow=hidden;points=[[0,0.5],[1,0.5]];portConstraint=eastwest;rotatable=0;whiteSpace=wrap;html=1;" parent="ERAgDpDxm6wKHiUxQbQV-12" vertex="1">
          <mxGeometry y="60" width="140" height="30" as="geometry" />
        </mxCell>
        <mxCell id="ERAgDpDxm6wKHiUxQbQV-15" value="Adreça" style="text;strokeColor=none;fillColor=none;align=left;verticalAlign=middle;spacingLeft=4;spacingRight=4;overflow=hidden;points=[[0,0.5],[1,0.5]];portConstraint=eastwest;rotatable=0;whiteSpace=wrap;html=1;" parent="ERAgDpDxm6wKHiUxQbQV-12" vertex="1">
          <mxGeometry y="90" width="140" height="30" as="geometry" />
        </mxCell>
        <mxCell id="ERAgDpDxm6wKHiUxQbQV-16" value="Telf" style="text;strokeColor=none;fillColor=none;align=left;verticalAlign=middle;spacingLeft=4;spacingRight=4;overflow=hidden;points=[[0,0.5],[1,0.5]];portConstraint=eastwest;rotatable=0;whiteSpace=wrap;html=1;" parent="ERAgDpDxm6wKHiUxQbQV-12" vertex="1">
          <mxGeometry y="120" width="140" height="30" as="geometry" />
        </mxCell>
        <mxCell id="ERAgDpDxm6wKHiUxQbQV-18" value="" style="endArrow=none;html=1;rounded=0;exitX=1;exitY=0.5;exitDx=0;exitDy=0;entryX=0;entryY=0.5;entryDx=0;entryDy=0;" parent="1" source="ERAgDpDxm6wKHiUxQbQV-17" target="ERAgDpDxm6wKHiUxQbQV-14" edge="1">
          <mxGeometry width="50" height="50" relative="1" as="geometry">
            <mxPoint x="351" y="295" as="sourcePoint" />
            <mxPoint x="401" y="245" as="targetPoint" />
          </mxGeometry>
        </mxCell>
        <mxCell id="ERAgDpDxm6wKHiUxQbQV-22" value="&lt;div&gt;(1,n)&lt;/div&gt;&lt;div&gt;es portat per&lt;br&gt;&lt;/div&gt;" style="edgeLabel;html=1;align=center;verticalAlign=middle;resizable=0;points=[];" parent="ERAgDpDxm6wKHiUxQbQV-18" vertex="1" connectable="0">
          <mxGeometry x="-0.063" y="-1" relative="1" as="geometry">
            <mxPoint as="offset" />
          </mxGeometry>
        </mxCell>
        <mxCell id="ERAgDpDxm6wKHiUxQbQV-19" value="" style="endArrow=none;html=1;rounded=0;exitX=0.5;exitY=0;exitDx=0;exitDy=0;entryX=0.498;entryY=1.089;entryDx=0;entryDy=0;entryPerimeter=0;" parent="1" source="ERAgDpDxm6wKHiUxQbQV-17" target="ERAgDpDxm6wKHiUxQbQV-6" edge="1">
          <mxGeometry width="50" height="50" relative="1" as="geometry">
            <mxPoint x="351" y="295" as="sourcePoint" />
            <mxPoint x="401" y="245" as="targetPoint" />
          </mxGeometry>
        </mxCell>
        <mxCell id="ERAgDpDxm6wKHiUxQbQV-20" value="&lt;div&gt;(1,n)&lt;/div&gt;&lt;div&gt;porta&lt;br&gt;&lt;/div&gt;" style="edgeLabel;html=1;align=center;verticalAlign=middle;resizable=0;points=[];" parent="ERAgDpDxm6wKHiUxQbQV-19" vertex="1" connectable="0">
          <mxGeometry x="-0.0069" y="2" relative="1" as="geometry">
            <mxPoint as="offset" />
          </mxGeometry>
        </mxCell>
        <mxCell id="ERAgDpDxm6wKHiUxQbQV-24" value="" style="endArrow=none;html=1;rounded=0;entryX=0;entryY=0.5;entryDx=0;entryDy=0;exitX=1;exitY=0.5;exitDx=0;exitDy=0;" parent="1" source="ERAgDpDxm6wKHiUxQbQV-4" target="ERAgDpDxm6wKHiUxQbQV-23" edge="1">
          <mxGeometry width="50" height="50" relative="1" as="geometry">
            <mxPoint x="351" y="295" as="sourcePoint" />
            <mxPoint x="401" y="245" as="targetPoint" />
          </mxGeometry>
        </mxCell>
        <mxCell id="ERAgDpDxm6wKHiUxQbQV-29" value="(1,n)" style="edgeLabel;html=1;align=center;verticalAlign=middle;resizable=0;points=[];" parent="ERAgDpDxm6wKHiUxQbQV-24" vertex="1" connectable="0">
          <mxGeometry x="-0.1815" y="2" relative="1" as="geometry">
            <mxPoint as="offset" />
          </mxGeometry>
        </mxCell>
        <mxCell id="ERAgDpDxm6wKHiUxQbQV-25" value="" style="endArrow=none;html=1;rounded=0;entryX=0.01;entryY=0.7;entryDx=0;entryDy=0;entryPerimeter=0;exitX=1;exitY=0.5;exitDx=0;exitDy=0;" parent="1" source="ERAgDpDxm6wKHiUxQbQV-23" target="ERAgDpDxm6wKHiUxQbQV-9" edge="1">
          <mxGeometry width="50" height="50" relative="1" as="geometry">
            <mxPoint x="351" y="295" as="sourcePoint" />
            <mxPoint x="401" y="245" as="targetPoint" />
          </mxGeometry>
        </mxCell>
        <mxCell id="ERAgDpDxm6wKHiUxQbQV-30" value="(1,1)" style="edgeLabel;html=1;align=center;verticalAlign=middle;resizable=0;points=[];" parent="ERAgDpDxm6wKHiUxQbQV-25" vertex="1" connectable="0">
          <mxGeometry x="-0.1377" y="-2" relative="1" as="geometry">
            <mxPoint as="offset" />
          </mxGeometry>
        </mxCell>
        <mxCell id="ERAgDpDxm6wKHiUxQbQV-27" value="" style="group" parent="1" vertex="1" connectable="0">
          <mxGeometry x="83" y="354" width="124" height="80" as="geometry" />
        </mxCell>
        <mxCell id="ERAgDpDxm6wKHiUxQbQV-17" value="AxP" style="rhombus;whiteSpace=wrap;html=1;" parent="ERAgDpDxm6wKHiUxQbQV-27" vertex="1">
          <mxGeometry x="44" width="80" height="80" as="geometry" />
        </mxCell>
        <mxCell id="ERAgDpDxm6wKHiUxQbQV-26" value="N:M" style="text;html=1;align=center;verticalAlign=middle;resizable=0;points=[];autosize=1;strokeColor=none;fillColor=none;" parent="ERAgDpDxm6wKHiUxQbQV-27" vertex="1">
          <mxGeometry y="27" width="40" height="26" as="geometry" />
        </mxCell>
        <mxCell id="ERAgDpDxm6wKHiUxQbQV-32" value="" style="group" parent="1" vertex="1" connectable="0">
          <mxGeometry x="338" y="100" width="80" height="122" as="geometry" />
        </mxCell>
        <mxCell id="ERAgDpDxm6wKHiUxQbQV-23" value="Assignat" style="rhombus;whiteSpace=wrap;html=1;" parent="ERAgDpDxm6wKHiUxQbQV-32" vertex="1">
          <mxGeometry y="42" width="80" height="80" as="geometry" />
        </mxCell>
        <mxCell id="ERAgDpDxm6wKHiUxQbQV-31" value="N:1" style="text;html=1;align=center;verticalAlign=middle;resizable=0;points=[];autosize=1;strokeColor=none;fillColor=none;" parent="ERAgDpDxm6wKHiUxQbQV-32" vertex="1">
          <mxGeometry x="21.5" width="37" height="26" as="geometry" />
        </mxCell>
      </root>
    </mxGraphModel>
  </diagram>
</mxfile>
